# xmcd
#
# Track frame offsets:
#	150
#	12607
#	27405
#	40057
#	49822
#	60172
#	69680
#	79502
#	89357
#	100072
#	113660
#	124890
#	137550
#	148835
#	162227
#	181437
#	194032
#	205645
#	214962
#	227745
#	239187
#	247500
#	267035
#	276612
#
# Disc length: 3818 seconds
#
# Revision: 1
# Processed by: cddbd v1.5.2PL0 Copyright (c) Steve Scherf et al.
# Submitted via: EZCDAudioConverter 7.0.4.1
#
DISCID=600ee818
DTITLE=Various Artist - Country Memories
DYEAR=1989
DGENRE=Country
TTITLE0=Bobby Bare - 500 Miles
TTITLE1=Lorne Greene - Ringo
TTITLE2=Jim Reeves - I Love You Because
TTITLE3=Floyd Cramer - On The Rebound
TTITLE4=Conway Twitty - Lonely Blue Boy
TTITLE5=Roger Miller - Chuq-A-Lug
TTITLE6=Ned Miller - From A Jack To A King
TTITLE7=Charlie Rich - Lonely Weekends
TTITLE8=Joe Barry - I'm A Fool To Care
TTITLE9=Gale Garnett - We'll Sing In The Sunshine
TTITLE10=Floyd Cramer - Last Date
TTITLE11=Bobby Bare - Four Strong Winds
TTITLE12=Elvis Presley - Crying In The Chapel
TTITLE13=Kenny Rogers and The First Edition - Ruby, Don't Take Your Love To Town
TTITLE14=Bobbie Gentry - Ode To Billie Joe
TTITLE15=Hugo Montenegro, His Orchestra And Chorus - The Good, The Bad And The
TTITLE15=Ugly
TTITLE16=Sandy Posey - Single Girl
TTITLE17=Jim Reeves - I Won't Forget You
TTITLE18=Elvis Presley - Don't Cry Daddy
TTITLE19=Bobby Goldsboro - It's Too Late
TTITLE20=Sandy Posey - Born A Woman
TTITLE21=Bobbie Gentry - Fancy
TTITLE22=Pete Drake - Forever
TTITLE23=Jewel Akens - The Birds And The Bees
EXTD=
EXTT0=
EXTT1=
EXTT2=
EXTT3=
EXTT4=
EXTT5=
EXTT6=
EXTT7=
EXTT8=
EXTT9=
EXTT10=
EXTT11=
EXTT12=
EXTT13=
EXTT14=
EXTT15=
EXTT16=
EXTT17=
EXTT18=
EXTT19=
EXTT20=
EXTT21=
EXTT22=
EXTT23=
PLAYORDER=
